<svg width="173" height="173" viewBox="0 0 173 173" fill="none" xmlns="http://www.w3.org/2000/svg">
<g clip-path="url(#clip0_97_92)">
<path d="M173 0H0V173H173V0Z" fill="#101C23"/>
<path d="M112.644 49.403H60.3557C51.0251 49.403 43.4612 56.9669 43.4612 66.2975V118.586C43.4612 127.917 51.0251 135.481 60.3557 135.481H112.644C121.975 135.481 129.539 127.917 129.539 118.586V66.2975C129.539 56.9669 121.975 49.403 112.644 49.403Z" fill="#101C23" stroke="#0D59F2" stroke-width="9.29199" stroke-miterlimit="10"/>
<path d="M98.5171 37.5177H74.4829C67.9189 37.5177 62.5976 42.8389 62.5976 49.403V49.4047C62.5976 55.9688 67.9189 61.29 74.4829 61.29H98.5171C105.081 61.29 110.402 55.9688 110.402 49.4047V49.403C110.402 42.8389 105.081 37.5177 98.5171 37.5177Z" fill="#101C23" stroke="#0D59F2" stroke-width="9.29199" stroke-miterlimit="10"/>
<path d="M82.7728 102.099L70.9162 90.2419C70.2379 89.5636 69.1385 89.5634 68.4606 90.2413C67.7827 90.9192 67.783 92.0186 68.4612 92.6968L80.3179 104.553C80.9961 105.232 82.0955 105.232 82.7734 104.554C83.4513 103.876 83.4511 102.777 82.7728 102.099Z" fill="white" stroke="#0D59F2" stroke-width="6.08203" stroke-miterlimit="10"/>
<path d="M82.7741 104.554L104.54 82.7879C105.218 82.1096 105.219 81.0103 104.541 80.3323C103.863 79.6544 102.763 79.6547 102.085 80.3329L80.3191 102.099C79.6409 102.777 79.6406 103.877 80.3185 104.555C80.9964 105.232 82.0958 105.232 82.7741 104.554Z" fill="white" stroke="#0D59F2" stroke-width="6.08203" stroke-miterlimit="10"/>
</g>
<defs>
<clipPath id="clip0_97_92">
<rect width="173" height="173" fill="white"/>
</clipPath>
</defs>
</svg>
