<svg width="172" height="172" viewBox="0 0 172 172" fill="none" xmlns="http://www.w3.org/2000/svg">
<g clip-path="url(#clip0_97_73)">
<path d="M172 0H0V172H172V0Z" fill="white"/>
<path d="M111.993 49.1174H60.0068C50.7302 49.1174 43.21 56.6376 43.21 65.9143V117.901C43.21 127.177 50.7302 134.698 60.0068 134.698H111.993C121.27 134.698 128.79 127.177 128.79 117.901V65.9143C128.79 56.6376 121.27 49.1174 111.993 49.1174Z" fill="white" stroke="#0D59F2" stroke-width="9.23828" stroke-miterlimit="10"/>
<path d="M97.9476 37.3008H74.0524C67.5263 37.3008 62.2358 42.5913 62.2358 49.1174V49.1191C62.2358 55.6452 67.5263 60.9357 74.0524 60.9357H97.9476C104.474 60.9357 109.764 55.6452 109.764 49.1191V49.1174C109.764 42.5913 104.474 37.3008 97.9476 37.3008Z" fill="white" stroke="#0D59F2" stroke-width="9.23828" stroke-miterlimit="10"/>
<path d="M82.2944 101.508L70.5063 89.7202C69.8319 89.0459 68.7389 89.0457 68.0649 89.7197C67.3909 90.3936 67.3912 91.4867 68.0655 92.161L79.8536 103.949C80.5279 104.623 81.621 104.624 82.2949 103.95C82.9689 103.276 82.9687 102.183 82.2944 101.508Z" fill="white" stroke="#0D59F2" stroke-width="6.04688" stroke-miterlimit="10"/>
<path d="M82.2956 103.95L103.936 82.3094C104.61 81.635 104.61 80.542 103.936 79.868C103.262 79.194 102.169 79.1943 101.495 79.8686L79.8548 101.509C79.1805 102.183 79.1803 103.276 79.8542 103.95C80.5282 104.624 81.6213 104.624 82.2956 103.95Z" fill="white" stroke="#0D59F2" stroke-width="6.04688" stroke-miterlimit="10"/>
</g>
<defs>
<clipPath id="clip0_97_73">
<rect width="172" height="172" fill="white"/>
</clipPath>
</defs>
</svg>
